<mxfile host="app.diagrams.net" modified="2024-02-17T17:39:32.889Z" agent="Mozilla/5.0 (Macintosh; Intel Mac OS X 10_15_7) AppleWebKit/605.1.15 (KHTML, like Gecko) Version/17.1.2 Safari/605.1.15" etag="bMm6PzR3-R9E5mrB_Kge" version="23.1.4" type="github" pages="2">
  <diagram id="C5RBs43oDa-KdzZeNtuy" name="Page-1">
    <mxGraphModel grid="1" page="1" gridSize="10" guides="1" tooltips="1" connect="1" arrows="1" fold="1" pageScale="1" pageWidth="827" pageHeight="1169" math="0" shadow="0">
      <root>
        <mxCell id="WIyWlLk6GJQsqaUBKTNV-0" />
        <mxCell id="WIyWlLk6GJQsqaUBKTNV-1" parent="WIyWlLk6GJQsqaUBKTNV-0" />
        <mxCell id="-ag36kHC-yeShJMEFlnH-72" style="edgeStyle=orthogonalEdgeStyle;rounded=0;orthogonalLoop=1;jettySize=auto;html=1;entryX=0.5;entryY=0;entryDx=0;entryDy=0;" edge="1" parent="WIyWlLk6GJQsqaUBKTNV-1" source="WIyWlLk6GJQsqaUBKTNV-3" target="WIyWlLk6GJQsqaUBKTNV-7">
          <mxGeometry relative="1" as="geometry" />
        </mxCell>
        <mxCell id="WIyWlLk6GJQsqaUBKTNV-3" value="&lt;b&gt;&lt;u&gt;&lt;i&gt;&lt;font style=&quot;font-size: 15px;&quot;&gt;CN0&lt;/font&gt;&lt;/i&gt;&lt;/u&gt;&lt;/b&gt;&lt;br&gt;Design an electrode pad for EMG sensors that ensures accurate signal measurement in dynamic conditions, including during subject movement and exposure to moisture, while being easy to use, cost-effective, hypoallergenic, and quick to apply." style="rounded=1;whiteSpace=wrap;html=1;fontSize=12;glass=0;strokeWidth=1;shadow=0;fillColor=#a20025;strokeColor=#6F0000;fontColor=#ffffff;" parent="WIyWlLk6GJQsqaUBKTNV-1" vertex="1">
          <mxGeometry x="303" y="10" width="220" height="140" as="geometry" />
        </mxCell>
        <mxCell id="-ag36kHC-yeShJMEFlnH-97" style="edgeStyle=orthogonalEdgeStyle;rounded=0;orthogonalLoop=1;jettySize=auto;html=1;exitX=0.5;exitY=1;exitDx=0;exitDy=0;" edge="1" parent="WIyWlLk6GJQsqaUBKTNV-1" source="WIyWlLk6GJQsqaUBKTNV-7">
          <mxGeometry relative="1" as="geometry">
            <mxPoint x="413.47058823529414" y="400" as="targetPoint" />
            <Array as="points">
              <mxPoint x="413" y="375" />
            </Array>
          </mxGeometry>
        </mxCell>
        <mxCell id="WIyWlLk6GJQsqaUBKTNV-7" value="&lt;b&gt;&lt;u&gt;&lt;i&gt;&lt;font style=&quot;font-size: 15px;&quot;&gt;FR0&lt;/font&gt;&lt;/i&gt;&lt;/u&gt;&lt;/b&gt;&lt;br&gt;Develop an electrode pad that accurately measures EMG signals under dynamic conditions, including movement and exposure to moisture, and is characterized by simple placement, hypoallergenic properties, cost-effectiveness, and fast application." style="rounded=1;whiteSpace=wrap;html=1;fontSize=12;glass=0;strokeWidth=1;shadow=0;fillColor=#008a00;strokeColor=#005700;fontColor=#ffffff;" parent="WIyWlLk6GJQsqaUBKTNV-1" vertex="1">
          <mxGeometry x="303" y="210" width="220" height="140" as="geometry" />
        </mxCell>
        <mxCell id="WIyWlLk6GJQsqaUBKTNV-12" value="&lt;b&gt;&lt;u&gt;&lt;i&gt;&lt;font style=&quot;font-size: 14px;&quot;&gt;FR1&lt;/font&gt;&lt;/i&gt;&lt;/u&gt;&lt;/b&gt;&lt;br&gt;Measures the signals while the subject is moving" style="rounded=1;whiteSpace=wrap;html=1;fontSize=12;glass=0;strokeWidth=1;shadow=0;fillColor=#008a00;strokeColor=#005700;fontColor=#ffffff;" parent="WIyWlLk6GJQsqaUBKTNV-1" vertex="1">
          <mxGeometry x="-180" y="800" width="140" height="90" as="geometry" />
        </mxCell>
        <mxCell id="-ag36kHC-yeShJMEFlnH-4" value="&lt;b&gt;&lt;u&gt;&lt;i&gt;&lt;font style=&quot;font-size: 14px;&quot;&gt;FR2&lt;/font&gt;&lt;/i&gt;&lt;/u&gt;&lt;/b&gt;&lt;br&gt;Resist sweat and dampness" style="rounded=1;whiteSpace=wrap;html=1;fontSize=12;glass=0;strokeWidth=1;shadow=0;fillColor=#008a00;strokeColor=#005700;fontColor=#ffffff;" vertex="1" parent="WIyWlLk6GJQsqaUBKTNV-1">
          <mxGeometry y="800" width="140" height="90" as="geometry" />
        </mxCell>
        <mxCell id="-ag36kHC-yeShJMEFlnH-5" value="&lt;b&gt;&lt;u&gt;&lt;i&gt;&lt;font style=&quot;font-size: 14px;&quot;&gt;FR3&lt;/font&gt;&lt;/i&gt;&lt;/u&gt;&lt;/b&gt;&lt;br&gt;Enable easy placement on the subject" style="rounded=1;whiteSpace=wrap;html=1;fontSize=12;glass=0;strokeWidth=1;shadow=0;fillColor=#008a00;strokeColor=#005700;fontColor=#ffffff;" vertex="1" parent="WIyWlLk6GJQsqaUBKTNV-1">
          <mxGeometry x="180" y="800" width="140" height="90" as="geometry" />
        </mxCell>
        <mxCell id="-ag36kHC-yeShJMEFlnH-6" value="&lt;b&gt;&lt;u&gt;&lt;i&gt;&lt;font style=&quot;font-size: 14px;&quot;&gt;FR4&lt;/font&gt;&lt;/i&gt;&lt;/u&gt;&lt;/b&gt;&lt;br&gt;Facilitate connection to the EMG base" style="rounded=1;whiteSpace=wrap;html=1;fontSize=12;glass=0;strokeWidth=1;shadow=0;fillColor=#008a00;strokeColor=#005700;fontColor=#ffffff;" vertex="1" parent="WIyWlLk6GJQsqaUBKTNV-1">
          <mxGeometry x="360" y="800" width="140" height="90" as="geometry" />
        </mxCell>
        <mxCell id="-ag36kHC-yeShJMEFlnH-7" value="&lt;b&gt;&lt;u&gt;&lt;i&gt;&lt;font style=&quot;font-size: 14px;&quot;&gt;FR5&lt;br&gt;&lt;/font&gt;&lt;/i&gt;&lt;/u&gt;&lt;/b&gt;Use hypoallergenic adhesive" style="rounded=1;whiteSpace=wrap;html=1;fontSize=12;glass=0;strokeWidth=1;shadow=0;fillColor=#008a00;strokeColor=#005700;fontColor=#ffffff;" vertex="1" parent="WIyWlLk6GJQsqaUBKTNV-1">
          <mxGeometry x="539" y="800" width="140" height="90" as="geometry" />
        </mxCell>
        <mxCell id="-ag36kHC-yeShJMEFlnH-8" value="&lt;b&gt;&lt;u&gt;&lt;i&gt;&lt;font style=&quot;font-size: 14px;&quot;&gt;FR6&lt;/font&gt;&lt;/i&gt;&lt;/u&gt;&lt;/b&gt;&lt;br&gt;Reduce costs of the electrodes" style="rounded=1;whiteSpace=wrap;html=1;fontSize=12;glass=0;strokeWidth=1;shadow=0;fillColor=#008a00;strokeColor=#005700;fontColor=#ffffff;" vertex="1" parent="WIyWlLk6GJQsqaUBKTNV-1">
          <mxGeometry x="720" y="800" width="140" height="90" as="geometry" />
        </mxCell>
        <mxCell id="-ag36kHC-yeShJMEFlnH-9" value="&lt;b&gt;&lt;u&gt;&lt;i&gt;&lt;font style=&quot;font-size: 14px;&quot;&gt;FR7&lt;/font&gt;&lt;/i&gt;&lt;/u&gt;&lt;/b&gt;&lt;br&gt;Easy and quick application" style="rounded=1;whiteSpace=wrap;html=1;fontSize=12;glass=0;strokeWidth=1;shadow=0;fillColor=#008a00;strokeColor=#005700;fontColor=#ffffff;" vertex="1" parent="WIyWlLk6GJQsqaUBKTNV-1">
          <mxGeometry x="900" y="800" width="140" height="90" as="geometry" />
        </mxCell>
        <mxCell id="-ag36kHC-yeShJMEFlnH-82" style="edgeStyle=orthogonalEdgeStyle;rounded=0;orthogonalLoop=1;jettySize=auto;html=1;entryX=0.5;entryY=0;entryDx=0;entryDy=0;" edge="1" parent="WIyWlLk6GJQsqaUBKTNV-1" source="-ag36kHC-yeShJMEFlnH-10" target="-ag36kHC-yeShJMEFlnH-63">
          <mxGeometry relative="1" as="geometry">
            <Array as="points">
              <mxPoint x="-110" y="570" />
              <mxPoint x="80" y="570" />
            </Array>
          </mxGeometry>
        </mxCell>
        <mxCell id="-ag36kHC-yeShJMEFlnH-10" value="&lt;span style=&quot;font-size: 14px;&quot;&gt;&lt;b&gt;&lt;i&gt;&lt;u&gt;CN1&lt;br&gt;&lt;/u&gt;&lt;/i&gt;&lt;/b&gt;&lt;/span&gt;Able to measure the signals while the subject is moving" style="rounded=1;whiteSpace=wrap;html=1;fontSize=12;glass=0;strokeWidth=1;shadow=0;fillColor=#a20025;fontColor=#ffffff;strokeColor=#6F0000;" vertex="1" parent="WIyWlLk6GJQsqaUBKTNV-1">
          <mxGeometry x="-180" y="450" width="140" height="90" as="geometry" />
        </mxCell>
        <mxCell id="-ag36kHC-yeShJMEFlnH-98" style="edgeStyle=orthogonalEdgeStyle;rounded=0;orthogonalLoop=1;jettySize=auto;html=1;entryX=0.5;entryY=0;entryDx=0;entryDy=0;" edge="1" parent="WIyWlLk6GJQsqaUBKTNV-1" source="-ag36kHC-yeShJMEFlnH-11" target="-ag36kHC-yeShJMEFlnH-63">
          <mxGeometry relative="1" as="geometry" />
        </mxCell>
        <mxCell id="-ag36kHC-yeShJMEFlnH-11" value="&lt;b style=&quot;font-size: 14px; text-decoration: underline; font-style: italic;&quot;&gt;CN2&lt;/b&gt;&lt;br&gt;&lt;font style=&quot;font-size: 12px;&quot;&gt;Withstand seat and dampnesss&lt;/font&gt;" style="rounded=1;whiteSpace=wrap;html=1;fontSize=12;glass=0;strokeWidth=1;shadow=0;fillColor=#a20025;fontColor=#ffffff;strokeColor=#6F0000;" vertex="1" parent="WIyWlLk6GJQsqaUBKTNV-1">
          <mxGeometry y="450" width="140" height="90" as="geometry" />
        </mxCell>
        <mxCell id="-ag36kHC-yeShJMEFlnH-84" style="edgeStyle=orthogonalEdgeStyle;rounded=0;orthogonalLoop=1;jettySize=auto;html=1;entryX=0.5;entryY=0;entryDx=0;entryDy=0;" edge="1" parent="WIyWlLk6GJQsqaUBKTNV-1" source="-ag36kHC-yeShJMEFlnH-12" target="-ag36kHC-yeShJMEFlnH-66">
          <mxGeometry relative="1" as="geometry">
            <Array as="points">
              <mxPoint x="250" y="560" />
              <mxPoint x="440" y="560" />
            </Array>
          </mxGeometry>
        </mxCell>
        <mxCell id="-ag36kHC-yeShJMEFlnH-12" value="&lt;b&gt;&lt;u&gt;&lt;i&gt;&lt;font style=&quot;font-size: 14px;&quot;&gt;CN3&lt;/font&gt;&lt;/i&gt;&lt;/u&gt;&lt;/b&gt;&lt;br&gt;Easy to place on a subject" style="rounded=1;whiteSpace=wrap;html=1;fontSize=12;glass=0;strokeWidth=1;shadow=0;fillColor=#a20025;fontColor=#ffffff;strokeColor=#6F0000;" vertex="1" parent="WIyWlLk6GJQsqaUBKTNV-1">
          <mxGeometry x="180" y="450" width="140" height="90" as="geometry" />
        </mxCell>
        <mxCell id="-ag36kHC-yeShJMEFlnH-85" style="edgeStyle=orthogonalEdgeStyle;rounded=0;orthogonalLoop=1;jettySize=auto;html=1;entryX=0.5;entryY=0;entryDx=0;entryDy=0;" edge="1" parent="WIyWlLk6GJQsqaUBKTNV-1" source="-ag36kHC-yeShJMEFlnH-13" target="-ag36kHC-yeShJMEFlnH-66">
          <mxGeometry relative="1" as="geometry">
            <Array as="points">
              <mxPoint x="430" y="560" />
              <mxPoint x="440" y="560" />
            </Array>
          </mxGeometry>
        </mxCell>
        <mxCell id="-ag36kHC-yeShJMEFlnH-13" value="&lt;span style=&quot;font-size: 14px;&quot;&gt;&lt;b&gt;&lt;i&gt;&lt;u&gt;CN4&lt;br&gt;&lt;/u&gt;&lt;/i&gt;&lt;/b&gt;&lt;/span&gt;Easy to connect to EMG sensor it-self" style="rounded=1;whiteSpace=wrap;html=1;fontSize=12;glass=0;strokeWidth=1;shadow=0;fillColor=#a20025;fontColor=#ffffff;strokeColor=#6F0000;" vertex="1" parent="WIyWlLk6GJQsqaUBKTNV-1">
          <mxGeometry x="360" y="450" width="140" height="90" as="geometry" />
        </mxCell>
        <mxCell id="-ag36kHC-yeShJMEFlnH-14" value="&lt;b&gt;&lt;u&gt;&lt;i&gt;&lt;font style=&quot;font-size: 14px;&quot;&gt;CN5&lt;br&gt;&lt;/font&gt;&lt;/i&gt;&lt;/u&gt;&lt;/b&gt;Adhesive is hypoallergenic" style="rounded=1;whiteSpace=wrap;html=1;fontSize=12;glass=0;strokeWidth=1;shadow=0;fillColor=#a20025;fontColor=#ffffff;strokeColor=#6F0000;" vertex="1" parent="WIyWlLk6GJQsqaUBKTNV-1">
          <mxGeometry x="539" y="450" width="140" height="90" as="geometry" />
        </mxCell>
        <mxCell id="-ag36kHC-yeShJMEFlnH-15" value="&lt;b&gt;&lt;u&gt;&lt;i&gt;&lt;font style=&quot;font-size: 14px;&quot;&gt;CN6&lt;/font&gt;&lt;/i&gt;&lt;/u&gt;&lt;/b&gt;&lt;br&gt;Cost-effective" style="rounded=1;whiteSpace=wrap;html=1;fontSize=12;glass=0;strokeWidth=1;shadow=0;fillColor=#a20025;fontColor=#ffffff;strokeColor=#6F0000;" vertex="1" parent="WIyWlLk6GJQsqaUBKTNV-1">
          <mxGeometry x="720" y="450" width="140" height="90" as="geometry" />
        </mxCell>
        <mxCell id="-ag36kHC-yeShJMEFlnH-105" style="edgeStyle=orthogonalEdgeStyle;rounded=0;orthogonalLoop=1;jettySize=auto;html=1;exitX=0.5;exitY=1;exitDx=0;exitDy=0;" edge="1" parent="WIyWlLk6GJQsqaUBKTNV-1" source="-ag36kHC-yeShJMEFlnH-16">
          <mxGeometry relative="1" as="geometry">
            <mxPoint x="440" y="600" as="targetPoint" />
            <Array as="points">
              <mxPoint x="970" y="560" />
              <mxPoint x="441" y="560" />
              <mxPoint x="441" y="600" />
            </Array>
          </mxGeometry>
        </mxCell>
        <mxCell id="-ag36kHC-yeShJMEFlnH-16" value="&lt;b&gt;&lt;u&gt;&lt;i&gt;&lt;font style=&quot;font-size: 14px;&quot;&gt;CN7&lt;/font&gt;&lt;/i&gt;&lt;/u&gt;&lt;/b&gt;&lt;br&gt;The electrodes and adhesive have a fast application process" style="rounded=1;whiteSpace=wrap;html=1;fontSize=12;glass=0;strokeWidth=1;shadow=0;fillColor=#a20025;fontColor=#ffffff;strokeColor=#6F0000;" vertex="1" parent="WIyWlLk6GJQsqaUBKTNV-1">
          <mxGeometry x="900" y="450" width="140" height="90" as="geometry" />
        </mxCell>
        <mxCell id="-ag36kHC-yeShJMEFlnH-17" value="" style="endArrow=none;html=1;rounded=0;" edge="1" parent="WIyWlLk6GJQsqaUBKTNV-1">
          <mxGeometry width="50" height="50" relative="1" as="geometry">
            <mxPoint x="-120" y="400" as="sourcePoint" />
            <mxPoint x="970" y="400" as="targetPoint" />
          </mxGeometry>
        </mxCell>
        <mxCell id="-ag36kHC-yeShJMEFlnH-20" value="" style="endArrow=classic;html=1;rounded=0;entryX=0.459;entryY=0.001;entryDx=0;entryDy=0;entryPerimeter=0;" edge="1" parent="WIyWlLk6GJQsqaUBKTNV-1">
          <mxGeometry width="50" height="50" relative="1" as="geometry">
            <mxPoint x="-120" y="400" as="sourcePoint" />
            <mxPoint x="-120.12999999999977" y="449.99999999999994" as="targetPoint" />
            <Array as="points" />
          </mxGeometry>
        </mxCell>
        <mxCell id="-ag36kHC-yeShJMEFlnH-21" value="" style="endArrow=classic;html=1;rounded=0;entryX=0.459;entryY=0.001;entryDx=0;entryDy=0;entryPerimeter=0;" edge="1" parent="WIyWlLk6GJQsqaUBKTNV-1">
          <mxGeometry width="50" height="50" relative="1" as="geometry">
            <mxPoint x="70" y="400" as="sourcePoint" />
            <mxPoint x="69.86000000000001" y="450" as="targetPoint" />
            <Array as="points" />
          </mxGeometry>
        </mxCell>
        <mxCell id="-ag36kHC-yeShJMEFlnH-22" value="" style="endArrow=classic;html=1;rounded=0;entryX=0.459;entryY=0.001;entryDx=0;entryDy=0;entryPerimeter=0;" edge="1" parent="WIyWlLk6GJQsqaUBKTNV-1">
          <mxGeometry width="50" height="50" relative="1" as="geometry">
            <mxPoint x="250" y="400" as="sourcePoint" />
            <mxPoint x="249.86" y="450" as="targetPoint" />
            <Array as="points" />
          </mxGeometry>
        </mxCell>
        <mxCell id="-ag36kHC-yeShJMEFlnH-23" value="" style="endArrow=classic;html=1;rounded=0;entryX=0.459;entryY=0.001;entryDx=0;entryDy=0;entryPerimeter=0;" edge="1" parent="WIyWlLk6GJQsqaUBKTNV-1">
          <mxGeometry width="50" height="50" relative="1" as="geometry">
            <mxPoint x="430" y="400" as="sourcePoint" />
            <mxPoint x="429.86" y="450" as="targetPoint" />
            <Array as="points" />
          </mxGeometry>
        </mxCell>
        <mxCell id="-ag36kHC-yeShJMEFlnH-25" value="" style="endArrow=classic;html=1;rounded=0;entryX=0.459;entryY=0.001;entryDx=0;entryDy=0;entryPerimeter=0;" edge="1" parent="WIyWlLk6GJQsqaUBKTNV-1">
          <mxGeometry width="50" height="50" relative="1" as="geometry">
            <mxPoint x="790" y="400" as="sourcePoint" />
            <mxPoint x="789.86" y="450" as="targetPoint" />
            <Array as="points" />
          </mxGeometry>
        </mxCell>
        <mxCell id="-ag36kHC-yeShJMEFlnH-26" value="" style="endArrow=classic;html=1;rounded=0;entryX=0.459;entryY=0.001;entryDx=0;entryDy=0;entryPerimeter=0;" edge="1" parent="WIyWlLk6GJQsqaUBKTNV-1">
          <mxGeometry width="50" height="50" relative="1" as="geometry">
            <mxPoint x="970" y="400" as="sourcePoint" />
            <mxPoint x="970" y="450" as="targetPoint" />
            <Array as="points" />
          </mxGeometry>
        </mxCell>
        <mxCell id="-ag36kHC-yeShJMEFlnH-54" value="" style="endArrow=classic;startArrow=classic;html=1;rounded=0;entryX=0;entryY=0.5;entryDx=0;entryDy=0;exitX=1;exitY=0.5;exitDx=0;exitDy=0;" edge="1" parent="WIyWlLk6GJQsqaUBKTNV-1" source="WIyWlLk6GJQsqaUBKTNV-12" target="-ag36kHC-yeShJMEFlnH-4">
          <mxGeometry width="50" height="50" relative="1" as="geometry">
            <mxPoint x="-40" y="850" as="sourcePoint" />
            <mxPoint x="10" y="800" as="targetPoint" />
          </mxGeometry>
        </mxCell>
        <mxCell id="-ag36kHC-yeShJMEFlnH-55" value="" style="endArrow=classic;startArrow=classic;html=1;rounded=0;exitX=1;exitY=0.5;exitDx=0;exitDy=0;entryX=0;entryY=0.5;entryDx=0;entryDy=0;" edge="1" parent="WIyWlLk6GJQsqaUBKTNV-1" source="-ag36kHC-yeShJMEFlnH-5" target="-ag36kHC-yeShJMEFlnH-6">
          <mxGeometry width="50" height="50" relative="1" as="geometry">
            <mxPoint x="290" y="844.8" as="sourcePoint" />
            <mxPoint x="314.25" y="845" as="targetPoint" />
          </mxGeometry>
        </mxCell>
        <mxCell id="-ag36kHC-yeShJMEFlnH-80" style="edgeStyle=orthogonalEdgeStyle;rounded=0;orthogonalLoop=1;jettySize=auto;html=1;" edge="1" parent="WIyWlLk6GJQsqaUBKTNV-1" source="-ag36kHC-yeShJMEFlnH-63" target="WIyWlLk6GJQsqaUBKTNV-12">
          <mxGeometry relative="1" as="geometry">
            <Array as="points">
              <mxPoint x="80" y="740" />
              <mxPoint x="-110" y="740" />
            </Array>
          </mxGeometry>
        </mxCell>
        <mxCell id="-ag36kHC-yeShJMEFlnH-63" value="&lt;b&gt;&lt;u&gt;&lt;i&gt;&lt;font style=&quot;font-size: 14px;&quot;&gt;CON1&lt;/font&gt;&lt;/i&gt;&lt;/u&gt;&lt;/b&gt;&lt;br&gt;Simple movements such as exercises" style="rounded=1;whiteSpace=wrap;html=1;fontSize=12;glass=0;strokeWidth=1;shadow=0;fillColor=#000000;fontColor=#FFFFFF;" vertex="1" parent="WIyWlLk6GJQsqaUBKTNV-1">
          <mxGeometry x="10" y="600" width="140" height="90" as="geometry" />
        </mxCell>
        <mxCell id="-ag36kHC-yeShJMEFlnH-64" value="&lt;span style=&quot;font-size: 14px;&quot;&gt;&lt;b&gt;&lt;i&gt;&lt;u&gt;CON2&lt;br&gt;&lt;/u&gt;&lt;/i&gt;&lt;/b&gt;&lt;/span&gt;Water resistant to a certain extent" style="rounded=1;whiteSpace=wrap;html=1;fontSize=12;glass=0;strokeWidth=1;shadow=0;fillColor=#000000;fontColor=#FFFFFF;" vertex="1" parent="WIyWlLk6GJQsqaUBKTNV-1">
          <mxGeometry x="180" y="1030" width="140" height="90" as="geometry" />
        </mxCell>
        <mxCell id="-ag36kHC-yeShJMEFlnH-88" style="edgeStyle=orthogonalEdgeStyle;rounded=0;orthogonalLoop=1;jettySize=auto;html=1;exitX=0.5;exitY=1;exitDx=0;exitDy=0;entryX=0.5;entryY=0;entryDx=0;entryDy=0;" edge="1" parent="WIyWlLk6GJQsqaUBKTNV-1" source="-ag36kHC-yeShJMEFlnH-65" target="-ag36kHC-yeShJMEFlnH-5">
          <mxGeometry relative="1" as="geometry">
            <Array as="points">
              <mxPoint x="260" y="750" />
              <mxPoint x="250" y="750" />
            </Array>
          </mxGeometry>
        </mxCell>
        <mxCell id="-ag36kHC-yeShJMEFlnH-110" style="edgeStyle=orthogonalEdgeStyle;rounded=0;orthogonalLoop=1;jettySize=auto;html=1;" edge="1" parent="WIyWlLk6GJQsqaUBKTNV-1" source="-ag36kHC-yeShJMEFlnH-65" target="-ag36kHC-yeShJMEFlnH-6">
          <mxGeometry relative="1" as="geometry">
            <Array as="points">
              <mxPoint x="260" y="750" />
              <mxPoint x="400" y="750" />
            </Array>
          </mxGeometry>
        </mxCell>
        <mxCell id="-ag36kHC-yeShJMEFlnH-65" value="&lt;b&gt;&lt;u&gt;&lt;i&gt;&lt;font style=&quot;font-size: 14px;&quot;&gt;CON3&lt;/font&gt;&lt;/i&gt;&lt;/u&gt;&lt;/b&gt;&lt;br&gt;Placement time &amp;lt;30 seconds per pad" style="rounded=1;whiteSpace=wrap;html=1;fontSize=12;glass=0;strokeWidth=1;shadow=0;fillColor=#000000;fontColor=#FFFFFF;" vertex="1" parent="WIyWlLk6GJQsqaUBKTNV-1">
          <mxGeometry x="190" y="600" width="140" height="90" as="geometry" />
        </mxCell>
        <mxCell id="-ag36kHC-yeShJMEFlnH-86" style="edgeStyle=orthogonalEdgeStyle;rounded=0;orthogonalLoop=1;jettySize=auto;html=1;exitX=0.5;exitY=1;exitDx=0;exitDy=0;entryX=0.5;entryY=0;entryDx=0;entryDy=0;" edge="1" parent="WIyWlLk6GJQsqaUBKTNV-1" source="-ag36kHC-yeShJMEFlnH-66" target="-ag36kHC-yeShJMEFlnH-5">
          <mxGeometry relative="1" as="geometry">
            <Array as="points">
              <mxPoint x="460" y="690" />
              <mxPoint x="460" y="750" />
              <mxPoint x="250" y="750" />
            </Array>
          </mxGeometry>
        </mxCell>
        <mxCell id="-ag36kHC-yeShJMEFlnH-102" style="edgeStyle=orthogonalEdgeStyle;rounded=0;orthogonalLoop=1;jettySize=auto;html=1;entryX=0.5;entryY=1;entryDx=0;entryDy=0;" edge="1" parent="WIyWlLk6GJQsqaUBKTNV-1" source="-ag36kHC-yeShJMEFlnH-66" target="-ag36kHC-yeShJMEFlnH-9">
          <mxGeometry relative="1" as="geometry">
            <Array as="points">
              <mxPoint x="460" y="750" />
              <mxPoint x="530" y="750" />
              <mxPoint x="530" y="930" />
              <mxPoint x="970" y="930" />
            </Array>
          </mxGeometry>
        </mxCell>
        <mxCell id="-ag36kHC-yeShJMEFlnH-66" value="&lt;span style=&quot;font-size: 14px;&quot;&gt;&lt;b&gt;&lt;i&gt;&lt;u&gt;CON4&lt;br&gt;&lt;/u&gt;&lt;/i&gt;&lt;/b&gt;&lt;/span&gt;Connection time &amp;lt;10s per second" style="rounded=1;whiteSpace=wrap;html=1;fontSize=12;glass=0;strokeWidth=1;shadow=0;fillColor=#000000;fontColor=#FFFFFF;" vertex="1" parent="WIyWlLk6GJQsqaUBKTNV-1">
          <mxGeometry x="370" y="600" width="140" height="90" as="geometry" />
        </mxCell>
        <mxCell id="-ag36kHC-yeShJMEFlnH-67" value="&lt;b&gt;&lt;u&gt;&lt;i&gt;&lt;font style=&quot;font-size: 14px;&quot;&gt;CON5&lt;br&gt;&lt;/font&gt;&lt;/i&gt;&lt;/u&gt;&lt;/b&gt;&amp;lt; 20%&lt;span style=&quot;text-align: start; font-weight: 700;&quot; class=&quot;OYPEnA text-decoration-none text-strikethrough-none white-space-prewrap&quot;&gt;&amp;nbsp;&amp;nbsp;&lt;/span&gt;&lt;span style=&quot;text-align: start;&quot; class=&quot;OYPEnA text-decoration-none text-strikethrough-none&quot;&gt;allergic reaction in users&lt;/span&gt;" style="rounded=1;whiteSpace=wrap;html=1;fontSize=12;glass=0;strokeWidth=1;shadow=0;fillColor=#000000;fontColor=#FFFFFF;" vertex="1" parent="WIyWlLk6GJQsqaUBKTNV-1">
          <mxGeometry x="550" y="600" width="140" height="90" as="geometry" />
        </mxCell>
        <mxCell id="-ag36kHC-yeShJMEFlnH-68" value="&lt;b&gt;&lt;u&gt;&lt;i&gt;&lt;font style=&quot;font-size: 14px;&quot;&gt;CON6&lt;/font&gt;&lt;/i&gt;&lt;/u&gt;&lt;/b&gt;&lt;br&gt;Cost-effective electrodes &amp;amp; Cost &amp;lt; 1 €" style="rounded=1;whiteSpace=wrap;html=1;fontSize=12;glass=0;strokeWidth=1;shadow=0;fillColor=#000000;fontColor=#FFFFFF;" vertex="1" parent="WIyWlLk6GJQsqaUBKTNV-1">
          <mxGeometry x="730" y="600" width="140" height="90" as="geometry" />
        </mxCell>
        <mxCell id="-ag36kHC-yeShJMEFlnH-69" value="&lt;b&gt;&lt;u&gt;&lt;i&gt;&lt;font style=&quot;font-size: 14px;&quot;&gt;CON7&lt;/font&gt;&lt;/i&gt;&lt;/u&gt;&lt;/b&gt;&lt;br&gt;Total application time &amp;lt; 1 minute" style="rounded=1;whiteSpace=wrap;html=1;fontSize=12;glass=0;strokeWidth=1;shadow=0;fillColor=#000000;fontColor=#FFFFFF;" vertex="1" parent="WIyWlLk6GJQsqaUBKTNV-1">
          <mxGeometry x="380" y="1030" width="140" height="90" as="geometry" />
        </mxCell>
        <mxCell id="-ag36kHC-yeShJMEFlnH-71" value="" style="endArrow=classic;startArrow=classic;html=1;rounded=0;exitX=1;exitY=0.5;exitDx=0;exitDy=0;entryX=0;entryY=0.5;entryDx=0;entryDy=0;" edge="1" parent="WIyWlLk6GJQsqaUBKTNV-1" source="-ag36kHC-yeShJMEFlnH-12" target="-ag36kHC-yeShJMEFlnH-13">
          <mxGeometry width="50" height="50" relative="1" as="geometry">
            <mxPoint x="320" y="494.8" as="sourcePoint" />
            <mxPoint x="360" y="494.8" as="targetPoint" />
          </mxGeometry>
        </mxCell>
        <mxCell id="-ag36kHC-yeShJMEFlnH-73" value="" style="endArrow=classic;html=1;rounded=0;entryX=0.459;entryY=0.001;entryDx=0;entryDy=0;entryPerimeter=0;" edge="1" parent="WIyWlLk6GJQsqaUBKTNV-1">
          <mxGeometry width="50" height="50" relative="1" as="geometry">
            <mxPoint x="609" y="400" as="sourcePoint" />
            <mxPoint x="608.86" y="450" as="targetPoint" />
            <Array as="points" />
          </mxGeometry>
        </mxCell>
        <mxCell id="-ag36kHC-yeShJMEFlnH-93" style="edgeStyle=orthogonalEdgeStyle;rounded=0;orthogonalLoop=1;jettySize=auto;html=1;exitX=0.25;exitY=1;exitDx=0;exitDy=0;" edge="1" parent="WIyWlLk6GJQsqaUBKTNV-1" source="-ag36kHC-yeShJMEFlnH-67">
          <mxGeometry relative="1" as="geometry">
            <mxPoint x="609" y="800" as="targetPoint" />
            <Array as="points">
              <mxPoint x="609" y="690" />
            </Array>
          </mxGeometry>
        </mxCell>
        <mxCell id="-ag36kHC-yeShJMEFlnH-95" style="edgeStyle=orthogonalEdgeStyle;rounded=0;orthogonalLoop=1;jettySize=auto;html=1;exitX=0.5;exitY=1;exitDx=0;exitDy=0;entryX=0.564;entryY=-0.006;entryDx=0;entryDy=0;entryPerimeter=0;" edge="1" parent="WIyWlLk6GJQsqaUBKTNV-1" source="-ag36kHC-yeShJMEFlnH-68" target="-ag36kHC-yeShJMEFlnH-8">
          <mxGeometry relative="1" as="geometry" />
        </mxCell>
        <mxCell id="-ag36kHC-yeShJMEFlnH-103" style="edgeStyle=orthogonalEdgeStyle;rounded=0;orthogonalLoop=1;jettySize=auto;html=1;entryX=0.572;entryY=0.014;entryDx=0;entryDy=0;entryPerimeter=0;" edge="1" parent="WIyWlLk6GJQsqaUBKTNV-1" source="-ag36kHC-yeShJMEFlnH-63" target="-ag36kHC-yeShJMEFlnH-4">
          <mxGeometry relative="1" as="geometry" />
        </mxCell>
        <mxCell id="-ag36kHC-yeShJMEFlnH-106" style="edgeStyle=orthogonalEdgeStyle;rounded=0;orthogonalLoop=1;jettySize=auto;html=1;entryX=0.24;entryY=-0.033;entryDx=0;entryDy=0;entryPerimeter=0;" edge="1" parent="WIyWlLk6GJQsqaUBKTNV-1" source="-ag36kHC-yeShJMEFlnH-14" target="-ag36kHC-yeShJMEFlnH-67">
          <mxGeometry relative="1" as="geometry" />
        </mxCell>
        <mxCell id="-ag36kHC-yeShJMEFlnH-107" style="edgeStyle=orthogonalEdgeStyle;rounded=0;orthogonalLoop=1;jettySize=auto;html=1;exitX=0.5;exitY=1;exitDx=0;exitDy=0;entryX=0.563;entryY=-0.011;entryDx=0;entryDy=0;entryPerimeter=0;" edge="1" parent="WIyWlLk6GJQsqaUBKTNV-1" source="-ag36kHC-yeShJMEFlnH-15" target="-ag36kHC-yeShJMEFlnH-68">
          <mxGeometry relative="1" as="geometry" />
        </mxCell>
        <mxCell id="-ag36kHC-yeShJMEFlnH-108" style="edgeStyle=orthogonalEdgeStyle;rounded=0;orthogonalLoop=1;jettySize=auto;html=1;entryX=0.5;entryY=0.111;entryDx=0;entryDy=0;entryPerimeter=0;" edge="1" parent="WIyWlLk6GJQsqaUBKTNV-1" source="-ag36kHC-yeShJMEFlnH-12" target="-ag36kHC-yeShJMEFlnH-65">
          <mxGeometry relative="1" as="geometry">
            <Array as="points">
              <mxPoint x="250" y="560" />
              <mxPoint x="260" y="560" />
            </Array>
          </mxGeometry>
        </mxCell>
      </root>
    </mxGraphModel>
  </diagram>
  <diagram id="2ngwNnvGSj73Et7mt4ul" name="Page-2">
    <mxGraphModel dx="1947" dy="633" grid="1" gridSize="10" guides="1" tooltips="1" connect="1" arrows="1" fold="1" page="1" pageScale="1" pageWidth="827" pageHeight="1169" math="0" shadow="0">
      <root>
        <mxCell id="0" />
        <mxCell id="1" parent="0" />
        <mxCell id="yci1IBCpMyfOOzBmApg6-1" value="&lt;b&gt;CN0&lt;/b&gt;" style="rounded=1;whiteSpace=wrap;html=1;fillColor=#d80073;fontColor=#ffffff;strokeColor=#A50040;" vertex="1" parent="1">
          <mxGeometry x="310" y="60" width="100" height="70" as="geometry" />
        </mxCell>
        <mxCell id="yci1IBCpMyfOOzBmApg6-16" style="edgeStyle=orthogonalEdgeStyle;rounded=0;orthogonalLoop=1;jettySize=auto;html=1;exitX=0.5;exitY=0;exitDx=0;exitDy=0;entryX=0.5;entryY=1;entryDx=0;entryDy=0;" edge="1" parent="1" source="yci1IBCpMyfOOzBmApg6-2" target="yci1IBCpMyfOOzBmApg6-1">
          <mxGeometry relative="1" as="geometry">
            <Array as="points">
              <mxPoint x="725" y="160" />
              <mxPoint x="360" y="160" />
            </Array>
          </mxGeometry>
        </mxCell>
        <mxCell id="yci1IBCpMyfOOzBmApg6-2" value="&lt;b&gt;CN7&lt;/b&gt;" style="rounded=1;whiteSpace=wrap;html=1;fillColor=#d80073;fontColor=#ffffff;strokeColor=#A50040;" vertex="1" parent="1">
          <mxGeometry x="690" y="180" width="70" height="60" as="geometry" />
        </mxCell>
        <mxCell id="yci1IBCpMyfOOzBmApg6-14" style="edgeStyle=orthogonalEdgeStyle;rounded=0;orthogonalLoop=1;jettySize=auto;html=1;exitX=0.5;exitY=0;exitDx=0;exitDy=0;entryX=0.5;entryY=1;entryDx=0;entryDy=0;" edge="1" parent="1" source="yci1IBCpMyfOOzBmApg6-3" target="yci1IBCpMyfOOzBmApg6-1">
          <mxGeometry relative="1" as="geometry">
            <Array as="points">
              <mxPoint x="615" y="160" />
              <mxPoint x="360" y="160" />
            </Array>
          </mxGeometry>
        </mxCell>
        <mxCell id="yci1IBCpMyfOOzBmApg6-3" value="&lt;b&gt;CN6&lt;/b&gt;" style="rounded=1;whiteSpace=wrap;html=1;fillColor=#d80073;fontColor=#ffffff;strokeColor=#A50040;" vertex="1" parent="1">
          <mxGeometry x="580" y="180" width="70" height="60" as="geometry" />
        </mxCell>
        <mxCell id="yci1IBCpMyfOOzBmApg6-20" style="edgeStyle=orthogonalEdgeStyle;rounded=0;orthogonalLoop=1;jettySize=auto;html=1;entryX=0.5;entryY=1;entryDx=0;entryDy=0;" edge="1" parent="1" source="yci1IBCpMyfOOzBmApg6-4" target="yci1IBCpMyfOOzBmApg6-1">
          <mxGeometry relative="1" as="geometry">
            <Array as="points">
              <mxPoint x="505" y="160" />
              <mxPoint x="360" y="160" />
            </Array>
          </mxGeometry>
        </mxCell>
        <mxCell id="yci1IBCpMyfOOzBmApg6-4" value="&lt;b&gt;CN5&lt;/b&gt;" style="rounded=1;whiteSpace=wrap;html=1;fillColor=#d80073;fontColor=#ffffff;strokeColor=#A50040;" vertex="1" parent="1">
          <mxGeometry x="470" y="180" width="70" height="60" as="geometry" />
        </mxCell>
        <mxCell id="yci1IBCpMyfOOzBmApg6-19" style="edgeStyle=orthogonalEdgeStyle;rounded=0;orthogonalLoop=1;jettySize=auto;html=1;" edge="1" parent="1" source="yci1IBCpMyfOOzBmApg6-5">
          <mxGeometry relative="1" as="geometry">
            <mxPoint x="360" y="130" as="targetPoint" />
            <Array as="points">
              <mxPoint x="395" y="160" />
              <mxPoint x="360" y="160" />
            </Array>
          </mxGeometry>
        </mxCell>
        <mxCell id="yci1IBCpMyfOOzBmApg6-5" value="&lt;b&gt;CN4&lt;/b&gt;" style="rounded=1;whiteSpace=wrap;html=1;fillColor=#d80073;fontColor=#ffffff;strokeColor=#A50040;" vertex="1" parent="1">
          <mxGeometry x="360" y="180" width="70" height="60" as="geometry" />
        </mxCell>
        <mxCell id="yci1IBCpMyfOOzBmApg6-11" style="edgeStyle=orthogonalEdgeStyle;rounded=0;orthogonalLoop=1;jettySize=auto;html=1;entryX=0.5;entryY=1;entryDx=0;entryDy=0;" edge="1" parent="1" source="yci1IBCpMyfOOzBmApg6-6" target="yci1IBCpMyfOOzBmApg6-1">
          <mxGeometry relative="1" as="geometry">
            <Array as="points">
              <mxPoint x="285" y="160" />
              <mxPoint x="360" y="160" />
            </Array>
          </mxGeometry>
        </mxCell>
        <mxCell id="yci1IBCpMyfOOzBmApg6-6" value="&lt;b&gt;CN3&lt;/b&gt;" style="rounded=1;whiteSpace=wrap;html=1;fillColor=#d80073;fontColor=#ffffff;strokeColor=#A50040;" vertex="1" parent="1">
          <mxGeometry x="250" y="180" width="70" height="60" as="geometry" />
        </mxCell>
        <mxCell id="yci1IBCpMyfOOzBmApg6-17" style="edgeStyle=orthogonalEdgeStyle;rounded=0;orthogonalLoop=1;jettySize=auto;html=1;entryX=0.5;entryY=1;entryDx=0;entryDy=0;" edge="1" parent="1" source="yci1IBCpMyfOOzBmApg6-7" target="yci1IBCpMyfOOzBmApg6-1">
          <mxGeometry relative="1" as="geometry">
            <Array as="points">
              <mxPoint x="175" y="160" />
              <mxPoint x="360" y="160" />
            </Array>
          </mxGeometry>
        </mxCell>
        <mxCell id="yci1IBCpMyfOOzBmApg6-7" value="&lt;b&gt;CN2&lt;/b&gt;" style="rounded=1;whiteSpace=wrap;html=1;fillColor=#d80073;fontColor=#ffffff;strokeColor=#A50040;" vertex="1" parent="1">
          <mxGeometry x="140" y="180" width="70" height="60" as="geometry" />
        </mxCell>
        <mxCell id="yci1IBCpMyfOOzBmApg6-18" style="edgeStyle=orthogonalEdgeStyle;rounded=0;orthogonalLoop=1;jettySize=auto;html=1;entryX=0.5;entryY=1;entryDx=0;entryDy=0;" edge="1" parent="1" source="yci1IBCpMyfOOzBmApg6-8" target="yci1IBCpMyfOOzBmApg6-1">
          <mxGeometry relative="1" as="geometry">
            <Array as="points">
              <mxPoint x="65" y="160" />
              <mxPoint x="360" y="160" />
            </Array>
          </mxGeometry>
        </mxCell>
        <mxCell id="yci1IBCpMyfOOzBmApg6-8" value="&lt;b&gt;CN1&lt;/b&gt;" style="rounded=1;whiteSpace=wrap;html=1;fillColor=#d80073;fontColor=#ffffff;strokeColor=#A50040;" vertex="1" parent="1">
          <mxGeometry x="30" y="180" width="70" height="60" as="geometry" />
        </mxCell>
        <mxCell id="yci1IBCpMyfOOzBmApg6-41" style="edgeStyle=orthogonalEdgeStyle;rounded=0;orthogonalLoop=1;jettySize=auto;html=1;entryX=0.5;entryY=1;entryDx=0;entryDy=0;" edge="1" parent="1" source="yci1IBCpMyfOOzBmApg6-21" target="yci1IBCpMyfOOzBmApg6-2">
          <mxGeometry relative="1" as="geometry" />
        </mxCell>
        <mxCell id="yci1IBCpMyfOOzBmApg6-21" value="&lt;b&gt;FR7&lt;/b&gt;" style="rounded=1;whiteSpace=wrap;html=1;fillColor=#008a00;fontColor=#ffffff;strokeColor=#005700;" vertex="1" parent="1">
          <mxGeometry x="750" y="280" width="70" height="60" as="geometry" />
        </mxCell>
        <mxCell id="yci1IBCpMyfOOzBmApg6-40" style="edgeStyle=orthogonalEdgeStyle;rounded=0;orthogonalLoop=1;jettySize=auto;html=1;entryX=0.5;entryY=1;entryDx=0;entryDy=0;" edge="1" parent="1" source="yci1IBCpMyfOOzBmApg6-22" target="yci1IBCpMyfOOzBmApg6-3">
          <mxGeometry relative="1" as="geometry" />
        </mxCell>
        <mxCell id="yci1IBCpMyfOOzBmApg6-22" value="&lt;b&gt;FR6&lt;/b&gt;" style="rounded=1;whiteSpace=wrap;html=1;fillColor=#008a00;fontColor=#ffffff;strokeColor=#005700;" vertex="1" parent="1">
          <mxGeometry x="640" y="280" width="70" height="60" as="geometry" />
        </mxCell>
        <mxCell id="yci1IBCpMyfOOzBmApg6-39" style="edgeStyle=orthogonalEdgeStyle;rounded=0;orthogonalLoop=1;jettySize=auto;html=1;entryX=0.5;entryY=1;entryDx=0;entryDy=0;" edge="1" parent="1" source="yci1IBCpMyfOOzBmApg6-23" target="yci1IBCpMyfOOzBmApg6-4">
          <mxGeometry relative="1" as="geometry" />
        </mxCell>
        <mxCell id="yci1IBCpMyfOOzBmApg6-23" value="&lt;b&gt;FR5&lt;/b&gt;" style="rounded=1;whiteSpace=wrap;html=1;fillColor=#008a00;fontColor=#ffffff;strokeColor=#005700;" vertex="1" parent="1">
          <mxGeometry x="530" y="280" width="70" height="60" as="geometry" />
        </mxCell>
        <mxCell id="yci1IBCpMyfOOzBmApg6-24" value="&lt;b&gt;FR4&lt;/b&gt;" style="rounded=1;whiteSpace=wrap;html=1;fillColor=#008a00;fontColor=#ffffff;strokeColor=#005700;" vertex="1" parent="1">
          <mxGeometry x="320" y="280" width="70" height="60" as="geometry" />
        </mxCell>
        <mxCell id="yci1IBCpMyfOOzBmApg6-31" style="edgeStyle=orthogonalEdgeStyle;rounded=0;orthogonalLoop=1;jettySize=auto;html=1;exitX=0.5;exitY=0;exitDx=0;exitDy=0;entryX=0.5;entryY=1;entryDx=0;entryDy=0;" edge="1" parent="1" source="yci1IBCpMyfOOzBmApg6-25" target="yci1IBCpMyfOOzBmApg6-6">
          <mxGeometry relative="1" as="geometry" />
        </mxCell>
        <mxCell id="yci1IBCpMyfOOzBmApg6-25" value="&lt;b&gt;FR3&lt;/b&gt;" style="rounded=1;whiteSpace=wrap;html=1;fillColor=#008a00;fontColor=#ffffff;strokeColor=#005700;" vertex="1" parent="1">
          <mxGeometry x="210" y="280" width="70" height="60" as="geometry" />
        </mxCell>
        <mxCell id="yci1IBCpMyfOOzBmApg6-26" value="&lt;b&gt;FR2&lt;/b&gt;" style="rounded=1;whiteSpace=wrap;html=1;fillColor=#008a00;fontColor=#ffffff;strokeColor=#005700;" vertex="1" parent="1">
          <mxGeometry x="100" y="280" width="70" height="60" as="geometry" />
        </mxCell>
        <mxCell id="yci1IBCpMyfOOzBmApg6-29" style="edgeStyle=orthogonalEdgeStyle;rounded=0;orthogonalLoop=1;jettySize=auto;html=1;entryX=0.5;entryY=1;entryDx=0;entryDy=0;" edge="1" parent="1" source="yci1IBCpMyfOOzBmApg6-27" target="yci1IBCpMyfOOzBmApg6-8">
          <mxGeometry relative="1" as="geometry" />
        </mxCell>
        <mxCell id="yci1IBCpMyfOOzBmApg6-27" value="&lt;b&gt;FR1&lt;/b&gt;" style="rounded=1;whiteSpace=wrap;html=1;fillColor=#008a00;fontColor=#ffffff;strokeColor=#005700;" vertex="1" parent="1">
          <mxGeometry x="-10" y="280" width="70" height="60" as="geometry" />
        </mxCell>
        <mxCell id="yci1IBCpMyfOOzBmApg6-37" style="edgeStyle=orthogonalEdgeStyle;rounded=0;orthogonalLoop=1;jettySize=auto;html=1;exitX=0.5;exitY=0;exitDx=0;exitDy=0;" edge="1" parent="1" source="yci1IBCpMyfOOzBmApg6-28">
          <mxGeometry relative="1" as="geometry">
            <mxPoint x="400" y="240" as="targetPoint" />
          </mxGeometry>
        </mxCell>
        <mxCell id="yci1IBCpMyfOOzBmApg6-38" style="edgeStyle=orthogonalEdgeStyle;rounded=0;orthogonalLoop=1;jettySize=auto;html=1;entryX=0.5;entryY=1;entryDx=0;entryDy=0;" edge="1" parent="1" source="yci1IBCpMyfOOzBmApg6-28" target="yci1IBCpMyfOOzBmApg6-6">
          <mxGeometry relative="1" as="geometry">
            <Array as="points">
              <mxPoint x="455" y="260" />
              <mxPoint x="285" y="260" />
            </Array>
          </mxGeometry>
        </mxCell>
        <mxCell id="yci1IBCpMyfOOzBmApg6-28" value="&lt;b&gt;FR8&lt;/b&gt;" style="rounded=1;whiteSpace=wrap;html=1;fillColor=#008a00;fontColor=#ffffff;strokeColor=#005700;" vertex="1" parent="1">
          <mxGeometry x="420" y="280" width="70" height="60" as="geometry" />
        </mxCell>
        <mxCell id="yci1IBCpMyfOOzBmApg6-30" style="edgeStyle=orthogonalEdgeStyle;rounded=0;orthogonalLoop=1;jettySize=auto;html=1;entryX=0.429;entryY=1.033;entryDx=0;entryDy=0;entryPerimeter=0;" edge="1" parent="1" source="yci1IBCpMyfOOzBmApg6-26" target="yci1IBCpMyfOOzBmApg6-7">
          <mxGeometry relative="1" as="geometry" />
        </mxCell>
        <mxCell id="yci1IBCpMyfOOzBmApg6-35" style="edgeStyle=orthogonalEdgeStyle;rounded=0;orthogonalLoop=1;jettySize=auto;html=1;entryX=0.562;entryY=0.994;entryDx=0;entryDy=0;entryPerimeter=0;" edge="1" parent="1" source="yci1IBCpMyfOOzBmApg6-24" target="yci1IBCpMyfOOzBmApg6-5">
          <mxGeometry relative="1" as="geometry" />
        </mxCell>
        <mxCell id="yci1IBCpMyfOOzBmApg6-43" style="edgeStyle=orthogonalEdgeStyle;rounded=0;orthogonalLoop=1;jettySize=auto;html=1;entryX=0.5;entryY=1;entryDx=0;entryDy=0;" edge="1" parent="1" source="yci1IBCpMyfOOzBmApg6-42" target="yci1IBCpMyfOOzBmApg6-27">
          <mxGeometry relative="1" as="geometry">
            <Array as="points">
              <mxPoint x="355" y="370" />
              <mxPoint x="25" y="370" />
            </Array>
          </mxGeometry>
        </mxCell>
        <mxCell id="yci1IBCpMyfOOzBmApg6-45" style="edgeStyle=orthogonalEdgeStyle;rounded=0;orthogonalLoop=1;jettySize=auto;html=1;" edge="1" parent="1" source="yci1IBCpMyfOOzBmApg6-42">
          <mxGeometry relative="1" as="geometry">
            <mxPoint x="239.99999999999977" y="340" as="targetPoint" />
            <Array as="points">
              <mxPoint x="355" y="370" />
              <mxPoint x="240" y="370" />
            </Array>
          </mxGeometry>
        </mxCell>
        <mxCell id="yci1IBCpMyfOOzBmApg6-46" style="edgeStyle=orthogonalEdgeStyle;rounded=0;orthogonalLoop=1;jettySize=auto;html=1;exitX=0.5;exitY=0;exitDx=0;exitDy=0;entryX=0.5;entryY=1;entryDx=0;entryDy=0;" edge="1" parent="1" source="yci1IBCpMyfOOzBmApg6-42" target="yci1IBCpMyfOOzBmApg6-24">
          <mxGeometry relative="1" as="geometry" />
        </mxCell>
        <mxCell id="yci1IBCpMyfOOzBmApg6-47" style="edgeStyle=orthogonalEdgeStyle;rounded=0;orthogonalLoop=1;jettySize=auto;html=1;entryX=0.5;entryY=1;entryDx=0;entryDy=0;" edge="1" parent="1" source="yci1IBCpMyfOOzBmApg6-42" target="yci1IBCpMyfOOzBmApg6-28">
          <mxGeometry relative="1" as="geometry">
            <Array as="points">
              <mxPoint x="355" y="370" />
              <mxPoint x="455" y="370" />
            </Array>
          </mxGeometry>
        </mxCell>
        <mxCell id="yci1IBCpMyfOOzBmApg6-48" style="edgeStyle=orthogonalEdgeStyle;rounded=0;orthogonalLoop=1;jettySize=auto;html=1;entryX=0.5;entryY=1;entryDx=0;entryDy=0;" edge="1" parent="1" source="yci1IBCpMyfOOzBmApg6-42" target="yci1IBCpMyfOOzBmApg6-23">
          <mxGeometry relative="1" as="geometry">
            <Array as="points">
              <mxPoint x="355" y="370" />
              <mxPoint x="565" y="370" />
            </Array>
          </mxGeometry>
        </mxCell>
        <mxCell id="yci1IBCpMyfOOzBmApg6-49" style="edgeStyle=orthogonalEdgeStyle;rounded=0;orthogonalLoop=1;jettySize=auto;html=1;entryX=0.5;entryY=1;entryDx=0;entryDy=0;" edge="1" parent="1" source="yci1IBCpMyfOOzBmApg6-42" target="yci1IBCpMyfOOzBmApg6-22">
          <mxGeometry relative="1" as="geometry">
            <Array as="points">
              <mxPoint x="355" y="370" />
              <mxPoint x="675" y="370" />
            </Array>
          </mxGeometry>
        </mxCell>
        <mxCell id="yci1IBCpMyfOOzBmApg6-50" style="edgeStyle=orthogonalEdgeStyle;rounded=0;orthogonalLoop=1;jettySize=auto;html=1;entryX=0.5;entryY=1;entryDx=0;entryDy=0;" edge="1" parent="1" source="yci1IBCpMyfOOzBmApg6-42" target="yci1IBCpMyfOOzBmApg6-21">
          <mxGeometry relative="1" as="geometry">
            <Array as="points">
              <mxPoint x="355" y="370" />
              <mxPoint x="785" y="370" />
            </Array>
          </mxGeometry>
        </mxCell>
        <mxCell id="yci1IBCpMyfOOzBmApg6-42" value="&lt;b&gt;FR0&lt;/b&gt;" style="rounded=1;whiteSpace=wrap;html=1;fillColor=#008a00;fontColor=#ffffff;strokeColor=#005700;" vertex="1" parent="1">
          <mxGeometry x="305" y="390" width="100" height="70" as="geometry" />
        </mxCell>
        <mxCell id="yci1IBCpMyfOOzBmApg6-44" style="edgeStyle=orthogonalEdgeStyle;rounded=0;orthogonalLoop=1;jettySize=auto;html=1;exitX=0.5;exitY=0;exitDx=0;exitDy=0;entryX=0.445;entryY=1.035;entryDx=0;entryDy=0;entryPerimeter=0;" edge="1" parent="1" source="yci1IBCpMyfOOzBmApg6-42" target="yci1IBCpMyfOOzBmApg6-26">
          <mxGeometry relative="1" as="geometry">
            <Array as="points">
              <mxPoint x="355" y="370" />
              <mxPoint x="131" y="370" />
            </Array>
          </mxGeometry>
        </mxCell>
      </root>
    </mxGraphModel>
  </diagram>
</mxfile>
